<?xml version="1.0" encoding="UTF-8"?>
<svg width="1337px" height="1337px" viewBox="0 0 1337 1337" version="1.1" xmlns="http://www.w3.org/2000/svg" xmlns:xlink="http://www.w3.org/1999/xlink">
    <!-- Generator: Sketch 60.1 (88133) - https://sketch.com -->
    <title>LOGO</title>
    <desc>Created with Sketch.</desc>
    <g id="LOGO" stroke="none" stroke-width="1" fill="none" fill-rule="evenodd">
        <ellipse id="椭圆形" fill="#F9CF5F" cx="682" cy="764" rx="372" ry="361"></ellipse>
        <path d="M394.933594,451.794641 C398.15221,451.656587 467.386719,402.753906 467.386719,327.171875 C467.386719,251.589844 407.721989,214.543433 394.933594,215 C382.145198,215.456567 321.835938,249.820312 321.835938,330.296875 C321.835938,410.773438 391.714978,451.92935 394.933594,451.794641 Z" id="路径" fill="#CBE228"></path>
        <path d="M377.107422,513.783203 C375.115504,504.227811 332.847656,465.445313 262.84375,469.845703 C192.839844,474.246094 169.40625,526.282715 169.40625,530.109375 C169.40625,533.936035 212.482451,588.888476 286.53125,583.476563 C360.580049,578.064649 379.09934,523.338595 377.107422,513.783203 Z" id="路径-2" fill="#CBE228"></path>
        <path d="M385.886719,842.761719 L682,765.698672 L427.699219,623.402344 C402.601219,644.401696 385.784388,676.934248 377.248725,721 C368.713062,765.065752 371.592393,805.652991 385.886719,842.761719 Z" id="路径-3" fill="#FD7A7A"></path>
        <path d="M682,765.698672 L603.144531,491.371094 C561.423586,498.55452 526.000409,513.053218 496.875,534.867187 C467.749591,556.681157 444.690997,586.192876 427.699219,623.402344 L682,765.698672 Z" id="路径-4" fill="#FD7A7A"></path>
        <path d="M682,764 L603.144531,491.371094 C641.204579,478.173659 678.790517,473.318191 715.902344,476.804687 C753.014171,480.291184 789.205577,492.11992 824.476562,512.290895 L682,764 Z" id="路径-5" fill="#FD7A7A"></path>
        <path d="M682,765.698672 L824.476563,512.290895 C860.778646,523.063984 893.799479,546.874571 923.539062,583.722656 C953.278646,620.570741 969.91276,654.513449 973.441406,685.550781 L682,765.698672 Z" id="路径-6" fill="#FD7A7A"></path>
        <path d="M422.565584,617.266727 C395.920522,639.560498 378.255667,673.733571 369.394713,719.478655 C360.582262,764.973333 363.569453,807.080972 378.42142,845.637361 C379.884037,849.434381 383.963779,851.52864 387.901592,850.50383 L684.014873,773.440784 C690.989689,771.625598 692.195944,762.236638 685.906484,758.717313 L431.605702,616.420984 C428.708723,614.799952 425.111614,615.136478 422.565584,617.266727 Z M428.736,633.149 L660.733,762.966 L390.914,833.186 L390.628525,832.347132 C379.281375,798.73816 377.421983,762.173593 385.102737,722.521345 C392.743309,683.076543 407.102814,653.58607 428.039163,633.802274 L428.736,633.149 Z" id="路径-3" fill="#FFFFFF" fill-rule="nonzero"></path>
        <path d="M601.787082,483.487102 C558.864143,490.877485 522.260192,505.859473 492.079234,528.464014 C461.8473,551.106735 437.954164,581.686548 420.422073,620.07922 C418.692018,623.867784 420.158161,628.349944 423.792735,630.383704 L678.093516,772.680032 C684.328936,776.169118 691.662617,770.355711 689.688656,763.488568 L610.833188,489.160989 C609.705967,485.23954 605.808158,482.794761 601.787082,483.487102 Z M597.459,500.551 L668.94,749.224 L438.124,620.068 C454.228473,587.172885 475.403063,560.944003 501.670766,541.270361 C527.986259,521.560925 559.72684,508.010856 596.978205,500.645654 L597.459,500.551 Z" id="路径-4" fill="#FFFFFF" fill-rule="nonzero"></path>
        <path d="M600.523603,483.812606 C596.502493,485.206938 594.277004,489.505498 595.45954,493.593909 L674.315009,766.222815 C676.283311,773.027874 685.472498,774.105682 688.962058,767.94078 L831.438621,516.231674 C833.608256,512.398644 832.271473,507.532869 828.448067,505.346318 C792.208686,484.621531 754.923609,472.435342 716.650615,468.839759 C678.375862,465.24401 639.643908,470.247525 600.523603,483.812606 Z M716.379333,484.887891 C749.022924,488.123396 780.963077,498.039856 812.243116,514.676268 L813.54,515.37 L684.402,743.515 L612.965,496.533 L613.325812,496.418572 C647.732048,485.495457 681.656234,481.622638 715.154073,484.769616 L716.379333,484.887891 Z" id="路径-5" fill="#FFFFFF" fill-rule="nonzero"></path>
        <path d="M817.50319,508.37017 L675.026628,761.777948 C671.542765,767.974321 677.267138,775.297232 684.121289,773.412305 L975.562695,693.264414 C979.362563,692.219431 981.835379,688.562792 981.3902,684.64708 C977.668093,651.908093 960.380971,616.632893 929.764436,578.698243 C899.059836,540.654479 864.710578,515.885994 826.752554,504.621484 C823.172385,503.559025 819.33343,505.114919 817.50319,508.37017 Z M698.374,752.899 L828.253,521.895 L828.404984,521.946822 C860.639299,533.030376 890.265596,555.233808 917.313689,588.747069 L918.175704,589.81897 C944.206276,622.304587 959.57161,652.179591 964.449246,679.351112 L964.512,679.709 L698.374,752.899 Z" id="路径-6" fill="#FFFFFF" fill-rule="nonzero"></path>
        <path d="M682,721 C702.80413,721 720.640642,733.705884 728.172879,751.780997 L632.684836,779.294591 C632.234407,776.596732 632,773.82574 632,771 C632,743.385763 654.385763,721 682,721 Z" id="形状结合" fill="#FFFFFF"></path>
        <path d="M1020.899,614.65389 C1091.40681,624.903791 1126.66072,640.1277 1126.66072,660.325617 C1126.66072,690.622492 966.029959,793.261652 645.180251,871.841242 C324.330543,950.420831 155.596267,941.589289 141.539626,898.857775 C127.482986,856.126261 314.695876,779.849054 309.070876,773.575617 C303.445876,767.302179 -18.5189674,892.556085 3.0357201,982.200617 C24.5904076,1071.84515 404.503122,1051.93268 708.633376,982.200617 C1145.899,881.942804 1358.1913,753.715168 1333.8365,673.325617 C1318.20047,621.714701 1213.88797,602.157459 1020.899,614.65389 Z" id="路径-8" fill="#FD7A7A"></path>
    </g>
</svg>